:FULLY-SPECIFIED
:DEGREES
1240
root 3.83646 16.4369 -2.40664 128.554 -94.33 -123.844
lowerback 1.85583 0.0466544 -4.72915
upperback 1.18564 -0.0217135 -0.21984
thorax 0.179132 -0.041092 2.42549
lowerneck -18.5549 0.126247 -0.928323
upperneck 20.3137 -0.359772 2.86319
head 9.48948 0.0444548 1.09093
rclavicle -2.78299e-015 6.26172e-015
rhumerus -31.81 -6.87652 -81.3412
rradius 20.4989
rwrist 31.2292
rhand -25.2459 2.24633
rfingers 7.12502
rthumb 1.27405 -27.7296
lclavicle -2.78299e-015 6.26172e-015
lhumerus -22.9629 0.790955 89.0934
lradius 22.8885
lwrist -14.5446
lhand -27.8211 1.43866
lfingers 7.12502
lthumb -1.21312 31.415
rfemur -27.283 17.1609 12.1426
rtibia 12.4035
rfoot -5.88737 -24.5971
rtoes -10.9207
lfemur 1.41602 -11 -29.5906
ltibia 12.4367
lfoot -15.9851 0.959484
ltoes -4.87999
1241
root 3.83135 16.4197 -2.41617 127.764 -94.3245 -123.077
lowerback 1.88317 0.035405 -4.67202
upperback 1.18029 -0.0374225 -0.217484
thorax 0.15938 -0.0480709 2.39618
lowerneck -18.5711 0.194341 -0.832464
upperneck 20.3501 -0.254969 2.70084
head 9.50253 0.0822388 1.0331
rclavicle -1.19271e-015 -4.96962e-016
rhumerus -31.8437 -7.01261 -81.2508
rradius 20.2906
rwrist 31.5736
rhand -25.1906 2.2396
rfingers 7.12502
rthumb 1.32745 -27.736
lclavicle -1.19271e-015 -4.96962e-016
lhumerus -23.025 1.1684 89.05
lradius 22.7263
lwrist -14.4728
lhand -28.0692 1.52088
lfingers 7.12502
lthumb -1.45279 31.4957
rfemur -27.304 16.3965 12.6145
rtibia 12.9844
rfoot -5.70067 -23.3624
rtoes -11.2254
lfemur 2.11813 -11.1989 -29.7025
ltibia 12.0444
lfoot -16.1385 1.20235
ltoes -4.97245
1242
root 3.8241 16.4007 -2.42704 126.386 -94.3927 -121.737
lowerback 1.91572 0.0299511 -4.70231
upperback 1.20296 -0.0469622 -0.245836
thorax 0.1652 -0.0536864 2.38417
lowerneck -18.5546 0.245845 -0.811474
upperneck 20.2765 -0.172179 2.6434
head 9.47191 0.116086 1.02022
rclavicle 2.78299e-015 2.38542e-015
rhumerus -31.8344 -7.41783 -81.0543
rradius 20.0664
rwrist 32.293
rhand -25.0464 2.36346
rfingers 7.12502
rthumb 1.46675 -27.6112
lclavicle 2.78299e-015 2.38542e-015
lhumerus -23.103 1.59637 88.9693
lradius 22.6074
lwrist -14.6165
lhand -28.1914 1.56335
lfingers 7.12502
lthumb -1.57074 31.5373
rfemur -27.3341 15.5274 13.0811
rtibia 13.9057
rfoot -5.41986 -22.1964
rtoes -11.5929
lfemur 2.80044 -11.2578 -29.9009
ltibia 11.7239
lfoot -16.3147 1.34773
ltoes -5.64616
1243
root 3.81539 16.3825 -2.44095 125.807 -94.434 -121.172
lowerback 1.95548 -0.00835511 -4.77274
upperback 1.18905 -0.101369 -0.195735
thorax 0.133138 -0.0802954 2.47622
lowerneck -18.5908 0.318266 -0.819182
upperneck 20.3082 -0.0471029 2.55026
head 9.48693 0.16337 1.00644
rclavicle -3.57812e-015 -2.10712e-014
rhumerus -31.8721 -7.33272 -80.9977
rradius 19.9947
rwrist 32.3637
rhand -24.913 2.14905
rfingers 7.12502
rthumb 1.59559 -27.8247
lclavicle -3.57812e-015 -2.10712e-014
lhumerus -23.2817 1.92417 88.9995
lradius 22.5293
lwrist -14.3577
lhand -28.2581 1.63004
lfingers 7.12502
lthumb -1.63516 31.6035
rfemur -27.3172 14.5322 13.6901
rtibia 15.0002
rfoot -5.43029 -21.0745
rtoes -11.5193
lfemur 3.39705 -11.3825 -30.0291
ltibia 11.5292
lfoot -16.5207 1.53179
ltoes -5.82665
1244
root 3.80558 16.3622 -2.45401 125.523 -94.5437 -120.849
lowerback 1.87609 -0.0212803 -4.77438
upperback 1.20881 -0.11394 -0.238139
thorax 0.198826 -0.0884515 2.43353
lowerneck -18.6313 0.339856 -0.791308
upperneck 20.267 -0.015497 2.52094
head 9.4793 0.177671 0.995856
rclavicle 1.47101e-014 -2.06736e-014
rhumerus -31.9244 -7.8567 -80.7822
rradius 19.8796
rwrist 33.0557
rhand -24.8869 2.2169
rfingers 7.12502
rthumb 1.62081 -27.7567
lclavicle 1.47101e-014 -2.06736e-014
lhumerus -23.3649 2.21069 88.9421
lradius 22.3101
lwrist -14.4994
lhand -28.3484 1.59294
lfingers 7.12502
lthumb -1.72239 31.5657
rfemur -27.3511 13.6105 14.1718
rtibia 16.2914
rfoot -5.70805 -20.1679
rtoes -10.7305
lfemur 4.01943 -11.4963 -30.1926
ltibia 11.1797
lfoot -16.6239 1.64387
ltoes -6.18132
1245
root 3.79392 16.3464 -2.47017 126.351 -94.5628 -121.659
lowerback 1.87293 -0.0929124 -4.73138
upperback 1.19112 -0.20844 -0.197539
thorax 0.189682 -0.134807 2.45275
lowerneck -18.6348 0.404852 -0.716148
upperneck 20.226 0.0929937 2.36324
head 9.46362 0.216306 0.943017
rclavicle 3.18055e-015 3.00165e-014
rhumerus -31.9763 -7.9631 -80.7245
rradius 19.8072
rwrist 33.1423
rhand -24.9353 2.30567
rfingers 7.12502
rthumb 1.57402 -27.6683
lclavicle 3.18055e-015 3.00165e-014
lhumerus -23.5268 2.59145 88.8751
lradius 22.0582
lwrist -14.5783
lhand -28.2964 1.63604
lfingers 7.12502
lthumb -1.67221 31.6092
rfemur -27.2528 12.7664 14.8053
rtibia 17.4834
rfoot -5.60051 -19.4602
rtoes -10.6167
lfemur 4.73128 -11.6911 -30.2221
ltibia 10.7109
lfoot -16.5973 1.84154
ltoes -6.64104
1246
root 3.7809 16.3431 -2.48687 126.885 -94.657 -122.129
lowerback 1.80632 -0.144171 -4.74025
upperback 1.1711 -0.273215 -0.182513
thorax 0.211612 -0.167227 2.47397
lowerneck -18.6742 0.431541 -0.756891
upperneck 20.2127 0.146434 2.35124
head 9.46507 0.23721 0.95297
rclavicle 5.96354e-015 5.56597e-015
rhumerus -32.0625 -8.10861 -80.6332
rradius 19.8534
rwrist 33.1788
rhand -24.8733 2.13267
rfingers 7.12502
rthumb 1.63395 -27.8408
lclavicle 5.96354e-015 5.56597e-015
lhumerus -23.7106 2.84576 88.8715
lradius 21.8466
lwrist -14.7557
lhand -28.2018 1.67678
lfingers 7.12502
lthumb -1.58078 31.6507
rfemur -27.3195 12.2467 15.1422
rtibia 18.4911
rfoot -4.77359 -19.2763
rtoes -10.8491
lfemur 5.43478 -11.8703 -30.3072
ltibia 10.1436
lfoot -16.431 1.97121
ltoes -7.20823
1247
root 3.76823 16.3478 -2.50613 128.711 -94.5858 -123.87
lowerback 1.77172 -0.181714 -4.60133
upperback 1.13664 -0.319108 -0.115578
thorax 0.198593 -0.188258 2.46556
lowerneck -18.6651 0.486801 -0.692336
upperneck 20.1195 0.227747 2.26996
head 9.42952 0.271357 0.924319
rclavicle -6.75868e-015 -3.77691e-015
rhumerus -32.1571 -8.182 -80.6048
rradius 19.8319
rwrist 33.0482
rhand -25.1135 2.15652
rfingers 7.12502
rthumb 1.40199 -27.8186
lclavicle -6.75868e-015 -3.77691e-015
lhumerus -23.8605 3.18543 88.8222
lradius 21.5247
lwrist -15.0387
lhand -28.1354 1.63208
lfingers 7.12502
lthumb -1.51671 31.6064
rfemur -27.5941 12.4508 15.3034
rtibia 19.2433
rfoot -4.1193 -20.1297
rtoes -10.4525
lfemur 6.06504 -11.9745 -30.1515
ltibia 9.64506
lfoot -16.2673 2.01713
ltoes -7.6639
1248
root 3.7537 16.3446 -2.52465 129.893 -94.6064 -124.954
lowerback 1.719 -0.248421 -4.56368
upperback 1.09528 -0.404652 -0.0473404
thorax 0.192435 -0.229747 2.51573
lowerneck -18.7189 0.520351 -0.712568
upperneck 20.0997 0.298244 2.20358
head 9.43119 0.295784 0.914374
rclavicle -8.74653e-015 -1.8487e-014
rhumerus -32.2141 -8.16464 -80.572
rradius 19.8374
rwrist 32.7495
rhand -25.2126 2.15216
rfingers 7.12502
rthumb 1.3062 -27.8236
lclavicle -8.74653e-015 -1.8487e-014
lhumerus -24.0511 3.45697 88.8607
lradius 21.1534
lwrist -15.1707
lhand -28.2186 1.63393
lfingers 7.12502
lthumb -1.59707 31.6077
rfemur -27.7842 12.4844 15.388
rtibia 19.8482
rfoot -3.81488 -20.9125
rtoes -11.6115
lfemur 6.69854 -12.0898 -30.1344
ltibia 9.12651
lfoot -16.0241 2.13425
ltoes -8.39897
1249
root 3.7384 16.3466 -2.54541 132.77 -94.4204 -127.737
lowerback 1.65616 -0.27295 -4.32625
upperback 1.06914 -0.429954 0.0916323
thorax 0.201806 -0.240746 2.52553
lowerneck -18.8241 0.54286 -0.690615
upperneck 20.0957 0.342852 2.1302
head 9.44841 0.311031 0.892006
rclavicle -6.75868e-015 -1.39149e-015
rhumerus -32.3088 -8.19614 -80.476
rradius 19.947
rwrist 32.7554
rhand -25.1075 2.0709
rfingers 7.12502
rthumb 1.40778 -27.9042
lclavicle -6.75868e-015 -1.39149e-015
lhumerus -24.2261 3.73402 88.8943
lradius 20.7789
lwrist -15.4876
lhand -28.0911 1.82729
lfingers 7.12502
lthumb -1.47386 31.8019
rfemur -27.768 12.3159 15.8878
rtibia 20.2707
rfoot -3.44786 -21.0966
rtoes -12.7676
lfemur 7.14135 -12.1704 -29.8273
ltibia 9.00145
lfoot -15.9563 2.31376
ltoes -9.00921
1250
root 3.72304 16.3486 -2.56234 134.952 -94.3645 -129.794
lowerback 1.59814 -0.337057 -4.12979
upperback 1.00342 -0.510272 0.149717
thorax 0.171484 -0.277905 2.47594
lowerneck -18.8516 0.604613 -0.565775
upperneck 20.0739 0.425808 1.99373
head 9.44518 0.344084 0.835239
rclavicle 4.77083e-015 3.97569e-015
rhumerus -32.4174 -8.17574 -80.4897
rradius 20.0131
rwrist 32.51
rhand -25.0994 2.05712
rfingers 7.12502
rthumb 1.41552 -27.9179
lclavicle 4.77083e-015 3.97569e-015
lhumerus -24.444 4.08366 88.8157
lradius 20.322
lwrist -15.8814
lhand -28.0272 1.77728
lfingers 7.12502
lthumb -1.41217 31.7524
rfemur -27.7374 11.9323 16.2802
rtibia 20.7406
rfoot -3.02933 -20.7556
rtoes -12.6421
lfemur 7.37089 -12.2834 -29.6993
ltibia 9.24252
lfoot -15.9771 2.51991
ltoes -9.99917
1251
root 3.70591 16.3509 -2.58088 137.396 -94.2466 -132.076
lowerback 1.44861 -0.385461 -3.92219
upperback 0.954126 -0.565068 0.265683
thorax 0.207677 -0.30405 2.47832
lowerneck -18.8789 0.629681 -0.530188
upperneck 20.0144 0.480185 1.88028
head 9.42893 0.359877 0.797186
rclavicle 1.47101e-014 -5.1684e-015
rhumerus -32.4759 -8.18398 -80.3943
rradius 20.022
rwrist 32.5601
rhand -25.1988 2.03245
rfingers 7.12502
rthumb 1.3196 -27.9432
lclavicle 1.47101e-014 -5.1684e-015
lhumerus -24.6728 4.40313 88.8294
lradius 19.9239
lwrist -16.1079
lhand -27.9145 1.75021
lfingers 7.12502
lthumb -1.30334 31.726
rfemur -27.71 11.4729 16.786
rtibia 21.2466
rfoot -2.68178 -20.2062
rtoes -11.9961
lfemur 7.3731 -12.3646 -29.4788
ltibia 9.86091
lfoot -16.1841 2.70163
ltoes -10.9549
1252
root 3.6893 16.3554 -2.59778 139.08 -94.2196 -133.566
lowerback 1.27922 -0.43535 -3.75072
upperback 0.90893 -0.622423 0.312266
thorax 0.258867 -0.331973 2.42922
lowerneck -18.927 0.654928 -0.58543
upperneck 19.935 0.523779 1.92855
head 9.40889 0.382529 0.828749
rclavicle -1.74931e-014 -4.57205e-015
rhumerus -32.4926 -8.13671 -80.406
rradius 20.0273
rwrist 32.356
rhand -25.2847 2.16683
rfingers 7.12502
rthumb 1.23657 -27.8093
lclavicle -1.74931e-014 -4.57205e-015
lhumerus -24.8513 4.78057 88.7636
lradius 19.458
lwrist -16.5699
lhand -27.5441 1.75277
lfingers 7.12502
lthumb -0.945624 31.7304
rfemur -27.746 10.6323 17.2893
rtibia 21.89
rfoot -2.84598 -19.0859
rtoes -11.2123
lfemur 7.33036 -12.467 -29.3802
ltibia 10.4874
lfoot -16.2234 2.86351
ltoes -11.6312
1253
root 3.67274 16.3608 -2.61786 141.676 -94.1257 -135.958
lowerback 1.10245 -0.48144 -3.52619
upperback 0.834829 -0.674939 0.388272
thorax 0.283697 -0.356298 2.3804
lowerneck -18.9293 0.702756 -0.533699
upperneck 19.8809 0.593555 1.85884
head 9.38982 0.411462 0.805107
rclavicle -1.70955e-014 1.98785e-016
rhumerus -32.5198 -8.18388 -80.4042
rradius 19.9716
rwrist 32.3263
rhand -25.3964 2.00134
rfingers 7.12502
rthumb 1.12873 -27.9754
lclavicle -1.70955e-014 1.98785e-016
lhumerus -25.0923 5.07546 88.6944
lradius 18.9817
lwrist -16.9617
lhand -27.3649 1.64369
lfingers 7.12502
lthumb -0.77253 31.622
rfemur -27.8086 10.0264 17.8326
rtibia 22.548
rfoot -3.34806 -18.104
rtoes -10.657
lfemur 7.18503 -12.473 -29.1337
ltibia 11.2552
lfoot -16.312 2.92602
ltoes -12.711
